<?xml version="1.0" encoding="UTF-8"?>
<svg id="Layer_2" data-name="Layer 2" xmlns="http://www.w3.org/2000/svg" viewBox="0 0 431.4 255.09">
  <g id="Layer_1-2" data-name="Layer 1">
    <g>
      <path d="m431.4,254.22c-3.1.21-5.01.43-6.93.44-24.83.12-49.67.26-74.5.2-1.58,0-3.87-1.27-4.61-2.62-11.94-21.72-23.55-43.61-35.49-65.33-14.11-25.67-28.48-51.19-42.68-76.81-2.34-4.21-4.43-8.57-6.5-12.92-6.61-13.91-17.33-21.7-32.95-21.81-25.83-.18-51.67-.23-77.5-.14-3.62.01-6-.99-7.67-4.18-12.04-22.97-24.13-45.92-36.19-68.88-.06-.12.03-.32.17-1.26,1.41-.24,3.06-.77,4.71-.77,45-.02,90.01-.31,135.01.22,17.2.2,31.99,8.36,45.91,17.88,19.41,13.28,32.13,31.85,42.71,52.46,19.46,37.9,39.55,75.47,59.3,113.21,9.64,18.41,19.08,36.91,28.7,55.33,2.44,4.68,5.22,9.19,8.52,14.97Z"/>
      <path d="m49.18,93.27c2.08-.15,3.38-.33,4.67-.33,25.84,0,51.68.05,77.51-.05,3.24-.01,5.17,1.03,6.7,3.95,10.17,19.49,21.01,38.65,30.52,58.46,3.89,8.1,7.51,15.91,14.8,21.35,5.98,4.47,12.7,7.26,20.3,7.28,24.34.07,48.68.15,73.01,0,5.07-.03,8.11.93,10.83,6.13,10.94,20.94,22.72,41.45,34.17,62.12.37.67.57,1.44,1,2.56-3.4,0-6.33,0-9.26,0-38.51,0-77.04-.81-115.51.31-27.73.81-49.48-10.19-69.17-28.1-14.53-13.22-23.33-30.17-32.47-47.01-15.09-27.8-30.26-55.56-45.39-83.34-.46-.85-.89-1.73-1.71-3.33Z"/>
      <path d="m0,.84C2.13.59,3.88.2,5.64.19,29.63.13,53.62.26,77.6,0c5.86-.06,9.24,1.78,12.06,7.2,10.99,21.09,22.55,41.87,33.87,62.79.53.98.8,2.09,1.36,3.61-1.63.25-2.88.62-4.13.62-25.82-.03-51.64-.12-77.46-.14-3.15,0-5.23-1.07-6.78-3.99C24.87,48.21,13.08,26.4,1.36,4.56.84,3.57.58,2.44,0,.84Z"/>
    </g>
  </g>
</svg>